# xmcd
#
# Track frame offsets: 
#        150
#        20591
#        41266
#        59506
#        77128
#        102480
#        125837
#        147470
#        166546
#        181275
#        203393
#
# Disc length: 3147 seconds
#
# Revision: 0
# Processed by: cddbd v1.5.2PL0 Copyright (c) Steve Scherf et al.
# Submitted via: ExactAudioCopy v1.0b1
#
DISCID=910c490b
DTITLE=Tuan Hung - Vol.4 - Van Nho 2
DYEAR=2005
DGENRE=Pop
TTITLE0=Di Vang Cuoc Tinh (Duy Manh)
TTITLE1=Van Nho 2 (Nhac: Truong Le Son, Loi: Tuan Hung)
TTITLE2=Roi Mai Thuc Giac (Tuong Van)
TTITLE3=Nguoi Tinh Tram Nam (Duc Huy)
TTITLE4=Em Va Toi (Thanh Tung) song ca voi Ho Quynh Huong
TTITLE5=Dau Co Xa Lia Nhau (Thai Thinh)
TTITLE6=Biet Tim Dau (Duy Manh)
TTITLE7=Boi Vi Sao (Tuong Van)
TTITLE8=Dong Song Lo Dang (Viet Anh)
TTITLE9=Thien Duong Khong Loi (Truong Le Son)
TTITLE10=Lien Khuc: Trai Tim Kho, Vang Trang Co Don (Ngoc Son)
EXTD=
EXTT0=
EXTT1=
EXTT2=
EXTT3=
EXTT4=
EXTT5=
EXTT6=
EXTT7=
EXTT8=
EXTT9=
EXTT10=
PLAYORDER=
